<svg id="Capa_1" data-name="Capa 1" xmlns="http://www.w3.org/2000/svg" viewBox="0 0 38 50"><defs><style>.cls-1{fill:#4a7899;}.cls-2,.cls-3{fill:#fff;stroke-width:0.79px;}.cls-2{stroke:#a8bdc6;}.cls-3{stroke:#b24b46;}.cls-4{fill:#e76251;}</style></defs><title>pinDefault-farmacia</title><path class="cls-1" d="M19,5.25a15,15,0,0,0-15,15C4,33.11,19,44.63,19,44.63S34,33.11,34,20.25A15,15,0,0,0,19,5.25Z"/><circle class="cls-2" cx="19" cy="21.04" r="10.66"/><path class="cls-3" d="M16.3,27.8c-2.73.41-4.83-1.7-4.42-4.81L21,14.57c3.07-.47,5.36,1.93,4.42,4.82Z"/><path class="cls-4" d="M24.83,19.07,20.59,23,17,19.12l4.24-4A3,3,0,0,1,24.83,19.07Z"/></svg>