<?xml version="1.0" encoding="utf-8"?>
<!-- Generator: Adobe Illustrator 23.0.5, SVG Export Plug-In . SVG Version: 6.00 Build 0)  -->
<svg version="1.1" id="Capa_1" xmlns="http://www.w3.org/2000/svg" xmlns:xlink="http://www.w3.org/1999/xlink" x="0px" y="0px" width="38" height="50"
	 viewBox="0 0 38 50" style="enable-background:new 0 0 38 50;" xml:space="preserve">
<style type="text/css">
	.st0{fill:#4A7899;}
	.st1{fill:#FFFFFF;stroke:#A8BDC6;stroke-width:0.7895;}
	.st2{fill:#FFFFFF;stroke:#B24B46;stroke-width:0.7895;}
	.st3{fill:#E76251;}
</style>
<path class="st0" d="M19,5.3c-8.3,0-15,6.7-15,15c0,12.9,15,24.4,15,24.4s15-11.5,15-24.4C34,12,27.3,5.3,19,5.3z"/>
<circle class="st1" cx="19" cy="21" r="10.7"/>
<path class="st2" d="M16.3,27.8c-2.7,0.4-4.8-1.7-4.4-4.8l9.2-8.4c3.1-0.5,5.4,1.9,4.4,4.8L16.3,27.8z"/>
<path class="st3" d="M24.8,19.1L20.6,23L17,19.1l4.2-3.9C23.6,14.7,25.6,16.6,24.8,19.1z"/>
</svg>
